<mxfile host="65bd71144e">
    <diagram id="zyMfki14KYTUElXndKxF" name="Page-1">
        <mxGraphModel dx="1059" dy="640" grid="1" gridSize="9" guides="1" tooltips="1" connect="1" arrows="1" fold="1" page="1" pageScale="1" pageWidth="850" pageHeight="1100" math="0" shadow="0">
            <root>
                <mxCell id="0"/>
                <mxCell id="1" parent="0"/>
                <mxCell id="2" value="Utilisateur" style="swimlane;fontStyle=0;childLayout=stackLayout;horizontal=1;startSize=30;horizontalStack=0;resizeParent=1;resizeParentMax=0;resizeLast=0;collapsible=1;marginBottom=0;whiteSpace=wrap;html=1;" parent="1" vertex="1">
                    <mxGeometry x="633" y="252" width="140" height="60" as="geometry"/>
                </mxCell>
                <mxCell id="3" value="&lt;u&gt;Pseudo&lt;/u&gt;" style="text;strokeColor=none;fillColor=none;align=left;verticalAlign=middle;spacingLeft=4;spacingRight=4;overflow=hidden;points=[[0,0.5],[1,0.5]];portConstraint=eastwest;rotatable=0;whiteSpace=wrap;html=1;" parent="2" vertex="1">
                    <mxGeometry y="30" width="140" height="30" as="geometry"/>
                </mxCell>
                <mxCell id="7" value="Lieu" style="swimlane;fontStyle=0;childLayout=stackLayout;horizontal=1;startSize=30;horizontalStack=0;resizeParent=1;resizeParentMax=0;resizeLast=0;collapsible=1;marginBottom=0;whiteSpace=wrap;html=1;" parent="1" vertex="1">
                    <mxGeometry x="533" y="422" width="140" height="90" as="geometry"/>
                </mxCell>
                <mxCell id="jW4mUXKAXwQGvzpiq0X_-96" style="edgeStyle=orthogonalEdgeStyle;html=1;strokeColor=default;endArrow=none;endFill=0;startArrow=none;" parent="7" edge="1">
                    <mxGeometry relative="1" as="geometry">
                        <Array as="points">
                            <mxPoint x="-29" y="24"/>
                        </Array>
                        <mxPoint x="-2" y="24" as="sourcePoint"/>
                        <mxPoint x="-29" y="60" as="targetPoint"/>
                    </mxGeometry>
                </mxCell>
                <mxCell id="52" value="&lt;u&gt;coordonées&lt;/u&gt;" style="text;strokeColor=none;fillColor=none;align=left;verticalAlign=middle;spacingLeft=4;spacingRight=4;overflow=hidden;points=[[0,0.5],[1,0.5]];portConstraint=eastwest;rotatable=0;whiteSpace=wrap;html=1;" parent="7" vertex="1">
                    <mxGeometry y="30" width="140" height="30" as="geometry"/>
                </mxCell>
                <mxCell id="53" value="Intérieur ou extérieur" style="text;strokeColor=none;fillColor=none;align=left;verticalAlign=middle;spacingLeft=4;spacingRight=4;overflow=hidden;points=[[0,0.5],[1,0.5]];portConstraint=eastwest;rotatable=0;whiteSpace=wrap;html=1;" parent="7" vertex="1">
                    <mxGeometry y="60" width="140" height="30" as="geometry"/>
                </mxCell>
                <mxCell id="41" style="edgeStyle=orthogonalEdgeStyle;html=1;exitX=1;exitY=1;exitDx=0;exitDy=0;strokeColor=default;endArrow=none;endFill=0;startArrow=none;entryX=0;entryY=0.3;entryDx=0;entryDy=0;entryPerimeter=0;" parent="1" source="44" target="30" edge="1">
                    <mxGeometry relative="1" as="geometry">
                        <Array as="points">
                            <mxPoint x="403" y="605"/>
                            <mxPoint x="403" y="646"/>
                        </Array>
                        <mxPoint x="612" y="648" as="targetPoint"/>
                    </mxGeometry>
                </mxCell>
                <mxCell id="9" value="Personne" style="swimlane;fontStyle=0;childLayout=stackLayout;horizontal=1;startSize=30;horizontalStack=0;resizeParent=1;resizeParentMax=0;resizeLast=0;collapsible=1;marginBottom=0;whiteSpace=wrap;html=1;" parent="1" vertex="1">
                    <mxGeometry x="333" y="422" width="140" height="60" as="geometry"/>
                </mxCell>
                <mxCell id="16" style="edgeStyle=none;html=1;exitX=0.5;exitY=0;exitDx=0;exitDy=0;entryX=0.469;entryY=1.117;entryDx=0;entryDy=0;entryPerimeter=0;" parent="1" source="11" target="3" edge="1">
                    <mxGeometry relative="1" as="geometry">
                        <Array as="points">
                            <mxPoint x="803" y="356"/>
                            <mxPoint x="699" y="356"/>
                        </Array>
                    </mxGeometry>
                </mxCell>
                <mxCell id="11" value="Association" style="swimlane;fontStyle=0;childLayout=stackLayout;horizontal=1;startSize=30;horizontalStack=0;resizeParent=1;resizeParentMax=0;resizeLast=0;collapsible=1;marginBottom=0;whiteSpace=wrap;html=1;" parent="1" vertex="1">
                    <mxGeometry x="733" y="422" width="140" height="60" as="geometry"/>
                </mxCell>
                <mxCell id="HyIcmmqX0pT-Xk0gkFHO-54" style="edgeStyle=orthogonalEdgeStyle;rounded=0;orthogonalLoop=1;jettySize=auto;html=1;entryX=0.914;entryY=-0.067;entryDx=0;entryDy=0;endArrow=none;endFill=0;shape=link;width=-4;entryPerimeter=0;" parent="1" source="HyIcmmqX0pT-Xk0gkFHO-59" target="jW4mUXKAXwQGvzpiq0X_-108" edge="1">
                    <mxGeometry relative="1" as="geometry">
                        <Array as="points">
                            <mxPoint x="1277" y="783"/>
                            <mxPoint x="1206" y="783"/>
                            <mxPoint x="1206" y="837"/>
                            <mxPoint x="1208" y="837"/>
                        </Array>
                    </mxGeometry>
                </mxCell>
                <mxCell id="HyIcmmqX0pT-Xk0gkFHO-62" value="1-1" style="edgeLabel;html=1;align=center;verticalAlign=middle;resizable=0;points=[];" parent="HyIcmmqX0pT-Xk0gkFHO-54" vertex="1" connectable="0">
                    <mxGeometry x="0.6724" relative="1" as="geometry">
                        <mxPoint x="14" y="10" as="offset"/>
                    </mxGeometry>
                </mxCell>
                <mxCell id="12" value="Groupe" style="swimlane;fontStyle=0;childLayout=stackLayout;horizontal=1;startSize=30;horizontalStack=0;resizeParent=1;resizeParentMax=0;resizeLast=0;collapsible=1;marginBottom=0;whiteSpace=wrap;html=1;" parent="1" vertex="1">
                    <mxGeometry x="933" y="422" width="140" height="60" as="geometry"/>
                </mxCell>
                <mxCell id="13" value="" style="endArrow=classic;html=1;exitX=0.5;exitY=0;exitDx=0;exitDy=0;entryX=0.481;entryY=1.153;entryDx=0;entryDy=0;entryPerimeter=0;" parent="1" source="9" target="3" edge="1">
                    <mxGeometry width="50" height="50" relative="1" as="geometry">
                        <mxPoint x="427" y="397" as="sourcePoint"/>
                        <mxPoint x="477" y="347" as="targetPoint"/>
                        <Array as="points">
                            <mxPoint x="403" y="356"/>
                            <mxPoint x="700" y="356"/>
                        </Array>
                    </mxGeometry>
                </mxCell>
                <mxCell id="14" value="" style="endArrow=classic;html=1;exitX=0.5;exitY=0;exitDx=0;exitDy=0;entryX=0.479;entryY=1.081;entryDx=0;entryDy=0;entryPerimeter=0;" parent="1" source="12" target="3" edge="1">
                    <mxGeometry width="50" height="50" relative="1" as="geometry">
                        <mxPoint x="412" y="431" as="sourcePoint"/>
                        <mxPoint x="697" y="320" as="targetPoint"/>
                        <Array as="points">
                            <mxPoint x="1003" y="356"/>
                            <mxPoint x="699" y="356"/>
                        </Array>
                    </mxGeometry>
                </mxCell>
                <mxCell id="15" value="" style="endArrow=classic;html=1;exitX=0.5;exitY=0;exitDx=0;exitDy=0;entryX=0.469;entryY=1.145;entryDx=0;entryDy=0;entryPerimeter=0;" parent="1" source="7" target="3" edge="1">
                    <mxGeometry width="50" height="50" relative="1" as="geometry">
                        <mxPoint x="421" y="440" as="sourcePoint"/>
                        <mxPoint x="718.3400000000001" y="334.5899999999999" as="targetPoint"/>
                        <Array as="points">
                            <mxPoint x="603" y="356"/>
                            <mxPoint x="697" y="356"/>
                        </Array>
                    </mxGeometry>
                </mxCell>
                <mxCell id="17" value="" style="endArrow=none;dashed=1;html=1;" parent="1" edge="1">
                    <mxGeometry width="50" height="50" relative="1" as="geometry">
                        <mxPoint x="661" y="338" as="sourcePoint"/>
                        <mxPoint x="742" y="338" as="targetPoint"/>
                    </mxGeometry>
                </mxCell>
                <mxCell id="18" value="Concert" style="swimlane;fontStyle=0;childLayout=stackLayout;horizontal=1;startSize=27;horizontalStack=0;resizeParent=1;resizeParentMax=0;resizeLast=0;collapsible=1;marginBottom=0;whiteSpace=wrap;html=1;" parent="1" vertex="1">
                    <mxGeometry x="498" y="684" width="140" height="204" as="geometry">
                        <mxRectangle x="633" y="576" width="81" height="27" as="alternateBounds"/>
                    </mxGeometry>
                </mxCell>
                <mxCell id="54" value="&lt;u&gt;id&lt;/u&gt;" style="text;strokeColor=none;fillColor=none;align=left;verticalAlign=middle;spacingLeft=4;spacingRight=4;overflow=hidden;points=[[0,0.5],[1,0.5]];portConstraint=eastwest;rotatable=0;whiteSpace=wrap;html=1;" parent="18" vertex="1">
                    <mxGeometry y="27" width="140" height="30" as="geometry"/>
                </mxCell>
                <mxCell id="jW4mUXKAXwQGvzpiq0X_-66" value="Nom" style="text;html=1;align=left;verticalAlign=middle;resizable=0;points=[];autosize=1;strokeColor=none;fillColor=none;fontStyle=4" parent="18" vertex="1">
                    <mxGeometry y="57" width="140" height="27" as="geometry"/>
                </mxCell>
                <mxCell id="21" value="date" style="text;strokeColor=none;fillColor=none;align=left;verticalAlign=middle;spacingLeft=4;spacingRight=4;overflow=hidden;points=[[0,0.5],[1,0.5]];portConstraint=eastwest;rotatable=0;whiteSpace=wrap;html=1;" parent="18" vertex="1">
                    <mxGeometry y="84" width="140" height="30" as="geometry"/>
                </mxCell>
                <mxCell id="30" value="prix" style="text;strokeColor=none;fillColor=none;align=left;verticalAlign=middle;spacingLeft=4;spacingRight=4;overflow=hidden;points=[[0,0.5],[1,0.5]];portConstraint=eastwest;rotatable=0;whiteSpace=wrap;html=1;" parent="18" vertex="1">
                    <mxGeometry y="114" width="140" height="30" as="geometry"/>
                </mxCell>
                <mxCell id="50" value="Besoin en volontaire" style="text;strokeColor=none;fillColor=none;align=left;verticalAlign=middle;spacingLeft=4;spacingRight=4;overflow=hidden;points=[[0,0.5],[1,0.5]];portConstraint=eastwest;rotatable=0;whiteSpace=wrap;html=1;" parent="18" vertex="1">
                    <mxGeometry y="144" width="140" height="30" as="geometry"/>
                </mxCell>
                <mxCell id="51" value="Cause soutenue" style="text;strokeColor=none;fillColor=none;align=left;verticalAlign=middle;spacingLeft=4;spacingRight=4;overflow=hidden;points=[[0,0.5],[1,0.5]];portConstraint=eastwest;rotatable=0;whiteSpace=wrap;html=1;" parent="18" vertex="1">
                    <mxGeometry y="174" width="140" height="30" as="geometry"/>
                </mxCell>
                <mxCell id="56" value="" style="edgeStyle=none;html=1;entryX=0;entryY=0.5;entryDx=0;entryDy=0;endArrow=none;endFill=0;" parent="1" source="28" target="58" edge="1">
                    <mxGeometry relative="1" as="geometry">
                        <mxPoint x="691" y="1066" as="targetPoint"/>
                        <Array as="points">
                            <mxPoint x="691" y="1044"/>
                        </Array>
                    </mxGeometry>
                </mxCell>
                <mxCell id="61" value="0-N" style="edgeLabel;html=1;align=center;verticalAlign=middle;resizable=0;points=[];" vertex="1" connectable="0" parent="56">
                    <mxGeometry x="-0.8341" y="3" relative="1" as="geometry">
                        <mxPoint x="-16" as="offset"/>
                    </mxGeometry>
                </mxCell>
                <mxCell id="62" value="0-1" style="edgeLabel;html=1;align=center;verticalAlign=middle;resizable=0;points=[];" vertex="1" connectable="0" parent="56">
                    <mxGeometry x="0.8045" y="2" relative="1" as="geometry">
                        <mxPoint y="-7" as="offset"/>
                    </mxGeometry>
                </mxCell>
                <mxCell id="28" value="Passé" style="swimlane;fontStyle=0;childLayout=stackLayout;horizontal=1;startSize=30;horizontalStack=0;resizeParent=1;resizeParentMax=0;resizeLast=0;collapsible=1;marginBottom=0;whiteSpace=wrap;html=1;" parent="1" vertex="1">
                    <mxGeometry x="621" y="926" width="140" height="60" as="geometry"/>
                </mxCell>
                <mxCell id="29" value="Nombre de participants" style="text;strokeColor=none;fillColor=none;align=left;verticalAlign=middle;spacingLeft=4;spacingRight=4;overflow=hidden;points=[[0,0.5],[1,0.5]];portConstraint=eastwest;rotatable=0;whiteSpace=wrap;html=1;" parent="28" vertex="1">
                    <mxGeometry y="30" width="140" height="30" as="geometry"/>
                </mxCell>
                <mxCell id="33" value="Annoncé" style="swimlane;fontStyle=0;childLayout=stackLayout;horizontal=1;startSize=30;horizontalStack=0;resizeParent=1;resizeParentMax=0;resizeLast=0;collapsible=1;marginBottom=0;whiteSpace=wrap;html=1;" parent="1" vertex="1">
                    <mxGeometry x="398" y="926" width="140" height="60" as="geometry"/>
                </mxCell>
                <mxCell id="34" value="Nombre de places" style="text;strokeColor=none;fillColor=none;align=left;verticalAlign=middle;spacingLeft=4;spacingRight=4;overflow=hidden;points=[[0,0.5],[1,0.5]];portConstraint=eastwest;rotatable=0;whiteSpace=wrap;html=1;" parent="33" vertex="1">
                    <mxGeometry y="30" width="140" height="30" as="geometry"/>
                </mxCell>
                <mxCell id="37" value="" style="endArrow=classic;html=1;exitX=0.5;exitY=0;exitDx=0;exitDy=0;" parent="1" source="33" target="51" edge="1">
                    <mxGeometry width="50" height="50" relative="1" as="geometry">
                        <mxPoint x="504" y="850" as="sourcePoint"/>
                        <mxPoint x="572" y="863" as="targetPoint"/>
                        <Array as="points">
                            <mxPoint x="468" y="908"/>
                            <mxPoint x="572" y="908"/>
                        </Array>
                    </mxGeometry>
                </mxCell>
                <mxCell id="38" value="" style="endArrow=classic;html=1;exitX=0.5;exitY=0;exitDx=0;exitDy=0;entryX=0.523;entryY=1.001;entryDx=0;entryDy=0;entryPerimeter=0;" parent="1" source="28" target="51" edge="1">
                    <mxGeometry width="50" height="50" relative="1" as="geometry">
                        <mxPoint x="684" y="868" as="sourcePoint"/>
                        <mxPoint x="571" y="863" as="targetPoint"/>
                        <Array as="points">
                            <mxPoint x="691" y="908"/>
                            <mxPoint x="571" y="908"/>
                        </Array>
                    </mxGeometry>
                </mxCell>
                <mxCell id="39" value="" style="endArrow=none;dashed=1;html=1;" parent="1" edge="1">
                    <mxGeometry width="50" height="50" relative="1" as="geometry">
                        <mxPoint x="538" y="900" as="sourcePoint"/>
                        <mxPoint x="612" y="900" as="targetPoint"/>
                    </mxGeometry>
                </mxCell>
                <mxCell id="43" value="0-N" style="edgeLabel;html=1;align=center;verticalAlign=middle;resizable=0;points=[];" parent="1" vertex="1" connectable="0">
                    <mxGeometry x="397.99851316632976" y="624.9988953104341" as="geometry">
                        <mxPoint x="85" y="47" as="offset"/>
                    </mxGeometry>
                </mxCell>
                <mxCell id="45" value="" style="edgeStyle=none;html=1;exitX=0.5;exitY=1;exitDx=0;exitDy=0;entryX=0.5;entryY=0;entryDx=0;entryDy=0;strokeColor=default;endArrow=none;endFill=0;" parent="1" source="9" target="44" edge="1">
                    <mxGeometry relative="1" as="geometry">
                        <mxPoint x="403" y="482" as="sourcePoint"/>
                        <mxPoint x="633" y="618" as="targetPoint"/>
                        <Array as="points"/>
                    </mxGeometry>
                </mxCell>
                <mxCell id="46" value="0-N" style="edgeLabel;html=1;align=center;verticalAlign=middle;resizable=0;points=[];" parent="45" vertex="1" connectable="0">
                    <mxGeometry x="-0.8986" relative="1" as="geometry">
                        <mxPoint x="-16" y="9" as="offset"/>
                    </mxGeometry>
                </mxCell>
                <mxCell id="HyIcmmqX0pT-Xk0gkFHO-64" value="" style="edgeStyle=orthogonalEdgeStyle;rounded=0;orthogonalLoop=1;jettySize=auto;html=1;endArrow=none;endFill=0;" parent="1" source="44" target="HyIcmmqX0pT-Xk0gkFHO-63" edge="1">
                    <mxGeometry relative="1" as="geometry"/>
                </mxCell>
                <mxCell id="44" value="Intéréssé" style="ellipse;whiteSpace=wrap;html=1;" parent="1" vertex="1">
                    <mxGeometry x="349" y="567" width="108" height="45" as="geometry"/>
                </mxCell>
                <mxCell id="jW4mUXKAXwQGvzpiq0X_-58" value="Avis" style="swimlane;fontStyle=0;childLayout=stackLayout;horizontal=1;startSize=30;horizontalStack=0;resizeParent=1;resizeParentMax=0;resizeLast=0;collapsible=1;marginBottom=0;whiteSpace=wrap;html=1;" parent="1" vertex="1">
                    <mxGeometry x="1080" y="618" width="140" height="120" as="geometry"/>
                </mxCell>
                <mxCell id="jW4mUXKAXwQGvzpiq0X_-59" value="note" style="text;strokeColor=none;fillColor=none;align=left;verticalAlign=middle;spacingLeft=4;spacingRight=4;overflow=hidden;points=[[0,0.5],[1,0.5]];portConstraint=eastwest;rotatable=0;whiteSpace=wrap;html=1;" parent="jW4mUXKAXwQGvzpiq0X_-58" vertex="1">
                    <mxGeometry y="30" width="140" height="30" as="geometry"/>
                </mxCell>
                <mxCell id="91" value="&lt;u&gt;date&lt;/u&gt;" style="text;strokeColor=none;fillColor=none;align=left;verticalAlign=middle;spacingLeft=4;spacingRight=4;overflow=hidden;points=[[0,0.5],[1,0.5]];portConstraint=eastwest;rotatable=0;whiteSpace=wrap;html=1;" vertex="1" parent="jW4mUXKAXwQGvzpiq0X_-58">
                    <mxGeometry y="60" width="140" height="30" as="geometry"/>
                </mxCell>
                <mxCell id="jW4mUXKAXwQGvzpiq0X_-60" value="commentaire" style="text;strokeColor=none;fillColor=none;align=left;verticalAlign=middle;spacingLeft=4;spacingRight=4;overflow=hidden;points=[[0,0.5],[1,0.5]];portConstraint=eastwest;rotatable=0;whiteSpace=wrap;html=1;" parent="jW4mUXKAXwQGvzpiq0X_-58" vertex="1">
                    <mxGeometry y="90" width="140" height="30" as="geometry"/>
                </mxCell>
                <mxCell id="jW4mUXKAXwQGvzpiq0X_-63" style="edgeStyle=orthogonalEdgeStyle;html=1;exitX=0;exitY=0.5;exitDx=0;exitDy=0;strokeColor=default;endArrow=none;endFill=0;startArrow=none;elbow=vertical;entryX=0.25;entryY=0;entryDx=0;entryDy=0;" parent="1" source="54" target="2" edge="1">
                    <mxGeometry relative="1" as="geometry">
                        <mxPoint x="773" y="576" as="sourcePoint"/>
                        <mxPoint x="333" y="351" as="targetPoint"/>
                        <Array as="points">
                            <mxPoint x="498" y="720"/>
                            <mxPoint x="198" y="720"/>
                            <mxPoint x="198" y="216"/>
                            <mxPoint x="668" y="216"/>
                        </Array>
                    </mxGeometry>
                </mxCell>
                <mxCell id="HyIcmmqX0pT-Xk0gkFHO-65" value="&lt;div&gt;Organise&lt;/div&gt;" style="edgeLabel;html=1;align=center;verticalAlign=middle;resizable=0;points=[];" parent="jW4mUXKAXwQGvzpiq0X_-63" vertex="1" connectable="0">
                    <mxGeometry x="-0.7052" y="2" relative="1" as="geometry">
                        <mxPoint x="39" y="12" as="offset"/>
                    </mxGeometry>
                </mxCell>
                <mxCell id="jW4mUXKAXwQGvzpiq0X_-67" value="0-N" style="text;html=1;align=center;verticalAlign=middle;resizable=0;points=[];autosize=1;strokeColor=none;fillColor=none;" parent="1" vertex="1">
                    <mxGeometry x="633" y="225" width="45" height="27" as="geometry"/>
                </mxCell>
                <mxCell id="jW4mUXKAXwQGvzpiq0X_-69" style="edgeStyle=orthogonalEdgeStyle;html=1;strokeColor=default;endArrow=none;endFill=0;startArrow=none;entryX=0.556;entryY=-0.002;entryDx=0;entryDy=0;entryPerimeter=0;shape=link;exitX=0.5;exitY=1;exitDx=0;exitDy=0;" parent="1" source="jW4mUXKAXwQGvzpiq0X_-74" target="18" edge="1">
                    <mxGeometry relative="1" as="geometry">
                        <Array as="points">
                            <mxPoint x="502" y="621"/>
                            <mxPoint x="576" y="621"/>
                        </Array>
                        <mxPoint x="504" y="576" as="sourcePoint"/>
                        <mxPoint x="603" y="576" as="targetPoint"/>
                    </mxGeometry>
                </mxCell>
                <mxCell id="jW4mUXKAXwQGvzpiq0X_-74" value="&lt;font style=&quot;font-size: 14px;&quot;&gt;Lieu du concert&lt;/font&gt;" style="rhombus;whiteSpace=wrap;html=1;" parent="1" vertex="1">
                    <mxGeometry x="466" y="482" width="72" height="80" as="geometry"/>
                </mxCell>
                <mxCell id="jW4mUXKAXwQGvzpiq0X_-75" value="1-1" style="text;html=1;align=center;verticalAlign=middle;resizable=0;points=[];autosize=1;strokeColor=none;fillColor=none;" parent="1" vertex="1">
                    <mxGeometry x="540" y="662" width="36" height="27" as="geometry"/>
                </mxCell>
                <mxCell id="jW4mUXKAXwQGvzpiq0X_-76" value="0-N" style="text;html=1;align=center;verticalAlign=middle;resizable=0;points=[];autosize=1;strokeColor=none;fillColor=none;" parent="1" vertex="1">
                    <mxGeometry x="495" y="422" width="45" height="27" as="geometry"/>
                </mxCell>
                <mxCell id="jW4mUXKAXwQGvzpiq0X_-83" value="&lt;font style=&quot;font-size: 14px;&quot;&gt;&lt;b&gt;Follow&lt;/b&gt;&lt;/font&gt;" style="text;html=1;align=center;verticalAlign=middle;resizable=0;points=[];autosize=1;strokeColor=none;fillColor=none;" parent="1" vertex="1">
                    <mxGeometry x="513" y="252" width="63" height="27" as="geometry"/>
                </mxCell>
                <mxCell id="jW4mUXKAXwQGvzpiq0X_-81" style="html=1;strokeColor=default;endArrow=none;endFill=0;startArrow=none;edgeStyle=elbowEdgeStyle;" parent="1" edge="1">
                    <mxGeometry relative="1" as="geometry">
                        <Array as="points">
                            <mxPoint x="576" y="261"/>
                            <mxPoint x="597" y="276"/>
                            <mxPoint x="570" y="285"/>
                            <mxPoint x="543" y="249"/>
                            <mxPoint x="543" y="240"/>
                        </Array>
                        <mxPoint x="633" y="258" as="sourcePoint"/>
                        <mxPoint x="633" y="276" as="targetPoint"/>
                    </mxGeometry>
                </mxCell>
                <mxCell id="jW4mUXKAXwQGvzpiq0X_-87" value="&lt;font style=&quot;font-size: 10px;&quot;&gt;0-N&lt;/font&gt;" style="edgeLabel;html=1;align=center;verticalAlign=middle;resizable=0;points=[];" parent="jW4mUXKAXwQGvzpiq0X_-81" vertex="1" connectable="0">
                    <mxGeometry x="0.8333" y="4" relative="1" as="geometry">
                        <mxPoint x="-1" y="10" as="offset"/>
                    </mxGeometry>
                </mxCell>
                <mxCell id="jW4mUXKAXwQGvzpiq0X_-84" style="html=1;strokeColor=default;endArrow=none;endFill=0;startArrow=none;edgeStyle=orthogonalEdgeStyle;entryX=0.179;entryY=1;entryDx=0;entryDy=0;entryPerimeter=0;" parent="1" target="3" edge="1">
                    <mxGeometry relative="1" as="geometry">
                        <Array as="points">
                            <mxPoint x="576" y="306"/>
                            <mxPoint x="576" y="324"/>
                            <mxPoint x="658" y="324"/>
                        </Array>
                        <mxPoint x="631.5" y="306" as="sourcePoint"/>
                        <mxPoint x="657" y="324" as="targetPoint"/>
                    </mxGeometry>
                </mxCell>
                <mxCell id="jW4mUXKAXwQGvzpiq0X_-90" value="&lt;font style=&quot;font-size: 10px;&quot;&gt;0-N&lt;/font&gt;" style="edgeLabel;html=1;align=center;verticalAlign=middle;resizable=0;points=[];" parent="jW4mUXKAXwQGvzpiq0X_-84" vertex="1" connectable="0">
                    <mxGeometry x="-0.8508" y="-3" relative="1" as="geometry">
                        <mxPoint x="3" y="-6" as="offset"/>
                    </mxGeometry>
                </mxCell>
                <mxCell id="jW4mUXKAXwQGvzpiq0X_-85" value="&lt;font style=&quot;font-size: 14px;&quot;&gt;&lt;b&gt;Amitié&lt;/b&gt;&lt;/font&gt;" style="text;html=1;align=center;verticalAlign=middle;resizable=0;points=[];autosize=1;strokeColor=none;fillColor=none;" parent="1" vertex="1">
                    <mxGeometry x="513" y="306" width="63" height="27" as="geometry"/>
                </mxCell>
                <mxCell id="jW4mUXKAXwQGvzpiq0X_-86" value="&lt;font style=&quot;font-size: 10px;&quot;&gt;0-N&lt;/font&gt;" style="text;html=1;align=center;verticalAlign=middle;resizable=0;points=[];autosize=1;strokeColor=none;fillColor=none;" parent="1" vertex="1">
                    <mxGeometry x="603.5" y="240" width="36" height="27" as="geometry"/>
                </mxCell>
                <mxCell id="jW4mUXKAXwQGvzpiq0X_-91" value="&lt;font style=&quot;font-size: 10px;&quot;&gt;0-N&lt;/font&gt;" style="text;html=1;align=center;verticalAlign=middle;resizable=0;points=[];autosize=1;strokeColor=none;fillColor=none;" parent="1" vertex="1">
                    <mxGeometry x="651" y="306" width="36" height="27" as="geometry"/>
                </mxCell>
                <mxCell id="jW4mUXKAXwQGvzpiq0X_-100" value="&lt;font style=&quot;font-size: 14px;&quot;&gt;Publie&lt;/font&gt;" style="rhombus;whiteSpace=wrap;html=1;" parent="1" vertex="1">
                    <mxGeometry x="1125" y="441" width="80" height="80" as="geometry"/>
                </mxCell>
                <mxCell id="jW4mUXKAXwQGvzpiq0X_-102" value="" style="endArrow=none;html=1;rounded=0;edgeStyle=orthogonalEdgeStyle;entryX=0.5;entryY=0;entryDx=0;entryDy=0;" parent="1" target="jW4mUXKAXwQGvzpiq0X_-100" edge="1">
                    <mxGeometry width="50" height="50" relative="1" as="geometry">
                        <mxPoint x="774" y="252" as="sourcePoint"/>
                        <mxPoint x="1157" y="306" as="targetPoint"/>
                        <Array as="points">
                            <mxPoint x="774" y="261"/>
                            <mxPoint x="1165" y="261"/>
                        </Array>
                    </mxGeometry>
                </mxCell>
                <mxCell id="jW4mUXKAXwQGvzpiq0X_-104" value="0-N" style="text;html=1;align=center;verticalAlign=middle;resizable=0;points=[];autosize=1;strokeColor=none;fillColor=none;" parent="1" vertex="1">
                    <mxGeometry x="763" y="240" width="45" height="27" as="geometry"/>
                </mxCell>
                <mxCell id="jW4mUXKAXwQGvzpiq0X_-106" value="" style="endArrow=none;html=1;rounded=0;exitX=0.614;exitY=0.011;exitDx=0;exitDy=0;exitPerimeter=0;shape=link;" parent="1" source="jW4mUXKAXwQGvzpiq0X_-58" edge="1">
                    <mxGeometry width="50" height="50" relative="1" as="geometry">
                        <mxPoint x="1166" y="639" as="sourcePoint"/>
                        <mxPoint x="1166" y="521" as="targetPoint"/>
                    </mxGeometry>
                </mxCell>
                <mxCell id="jW4mUXKAXwQGvzpiq0X_-107" value="1-1" style="text;html=1;align=center;verticalAlign=middle;resizable=0;points=[];autosize=1;strokeColor=none;fillColor=none;" parent="1" vertex="1">
                    <mxGeometry x="1116" y="591" width="140" height="27" as="geometry"/>
                </mxCell>
                <mxCell id="jW4mUXKAXwQGvzpiq0X_-108" value="Musique" style="swimlane;fontStyle=0;childLayout=stackLayout;horizontal=1;startSize=30;horizontalStack=0;resizeParent=1;resizeParentMax=0;resizeLast=0;collapsible=1;marginBottom=0;whiteSpace=wrap;html=1;" parent="1" vertex="1">
                    <mxGeometry x="1080" y="828" width="140" height="60" as="geometry"/>
                </mxCell>
                <mxCell id="jW4mUXKAXwQGvzpiq0X_-109" value="&lt;u&gt;nom&lt;/u&gt;" style="text;strokeColor=none;fillColor=none;align=left;verticalAlign=middle;spacingLeft=4;spacingRight=4;overflow=hidden;points=[[0,0.5],[1,0.5]];portConstraint=eastwest;rotatable=0;whiteSpace=wrap;html=1;" parent="jW4mUXKAXwQGvzpiq0X_-108" vertex="1">
                    <mxGeometry y="30" width="140" height="30" as="geometry"/>
                </mxCell>
                <mxCell id="jW4mUXKAXwQGvzpiq0X_-112" value="Playlist" style="swimlane;fontStyle=0;childLayout=stackLayout;horizontal=1;startSize=30;horizontalStack=0;resizeParent=1;resizeParentMax=0;resizeLast=0;collapsible=1;marginBottom=0;whiteSpace=wrap;html=1;" parent="1" vertex="1">
                    <mxGeometry x="1453" y="828" width="140" height="60" as="geometry"/>
                </mxCell>
                <mxCell id="jW4mUXKAXwQGvzpiq0X_-114" value="&lt;u&gt;nom&lt;/u&gt;" style="text;strokeColor=none;fillColor=none;align=left;verticalAlign=middle;spacingLeft=4;spacingRight=4;overflow=hidden;points=[[0,0.5],[1,0.5]];portConstraint=eastwest;rotatable=0;whiteSpace=wrap;html=1;" parent="jW4mUXKAXwQGvzpiq0X_-112" vertex="1">
                    <mxGeometry y="30" width="140" height="30" as="geometry"/>
                </mxCell>
                <mxCell id="jW4mUXKAXwQGvzpiq0X_-116" value="Genre" style="swimlane;fontStyle=0;childLayout=stackLayout;horizontal=1;startSize=30;horizontalStack=0;resizeParent=1;resizeParentMax=0;resizeLast=0;collapsible=1;marginBottom=0;whiteSpace=wrap;html=1;" parent="1" vertex="1">
                    <mxGeometry x="1080" y="918" width="140" height="60" as="geometry"/>
                </mxCell>
                <mxCell id="jW4mUXKAXwQGvzpiq0X_-117" value="&lt;u&gt;nom&lt;/u&gt;" style="text;strokeColor=none;fillColor=none;align=left;verticalAlign=middle;spacingLeft=4;spacingRight=4;overflow=hidden;points=[[0,0.5],[1,0.5]];portConstraint=eastwest;rotatable=0;whiteSpace=wrap;html=1;" parent="jW4mUXKAXwQGvzpiq0X_-116" vertex="1">
                    <mxGeometry y="30" width="140" height="30" as="geometry"/>
                </mxCell>
                <mxCell id="jW4mUXKAXwQGvzpiq0X_-128" value="" style="endArrow=none;html=1;rounded=0;" parent="jW4mUXKAXwQGvzpiq0X_-116" edge="1">
                    <mxGeometry width="50" height="50" relative="1" as="geometry">
                        <mxPoint x="72" as="sourcePoint"/>
                        <mxPoint x="72" y="-30" as="targetPoint"/>
                        <Array as="points"/>
                    </mxGeometry>
                </mxCell>
                <mxCell id="jW4mUXKAXwQGvzpiq0X_-133" style="edgeStyle=orthogonalEdgeStyle;rounded=0;orthogonalLoop=1;jettySize=auto;html=1;" parent="1" source="jW4mUXKAXwQGvzpiq0X_-120" edge="1">
                    <mxGeometry relative="1" as="geometry">
                        <mxPoint x="1150" y="981" as="targetPoint"/>
                    </mxGeometry>
                </mxCell>
                <mxCell id="jW4mUXKAXwQGvzpiq0X_-120" value="Sous-Genre" style="swimlane;fontStyle=0;childLayout=stackLayout;horizontal=1;startSize=30;horizontalStack=0;resizeParent=1;resizeParentMax=0;resizeLast=0;collapsible=1;marginBottom=0;whiteSpace=wrap;html=1;" parent="1" vertex="1">
                    <mxGeometry x="1080" y="1035" width="140" height="45" as="geometry"/>
                </mxCell>
                <mxCell id="jW4mUXKAXwQGvzpiq0X_-124" value="" style="endArrow=none;html=1;rounded=0;" parent="1" edge="1">
                    <mxGeometry width="50" height="50" relative="1" as="geometry">
                        <mxPoint x="1152" y="828" as="sourcePoint"/>
                        <mxPoint x="1152" y="738" as="targetPoint"/>
                    </mxGeometry>
                </mxCell>
                <mxCell id="jW4mUXKAXwQGvzpiq0X_-125" value="0-1" style="text;html=1;align=center;verticalAlign=middle;resizable=0;points=[];autosize=1;strokeColor=none;fillColor=none;" parent="1" vertex="1">
                    <mxGeometry x="1146" y="735" width="36" height="27" as="geometry"/>
                </mxCell>
                <mxCell id="jW4mUXKAXwQGvzpiq0X_-126" value="0-N" style="text;html=1;align=center;verticalAlign=middle;resizable=0;points=[];autosize=1;strokeColor=none;fillColor=none;" parent="1" vertex="1">
                    <mxGeometry x="1141.5" y="808.5" width="45" height="27" as="geometry"/>
                </mxCell>
                <mxCell id="jW4mUXKAXwQGvzpiq0X_-129" value="&lt;font style=&quot;font-size: 12px;&quot;&gt;1-1&lt;/font&gt;" style="text;html=1;align=center;verticalAlign=middle;resizable=0;points=[];autosize=1;strokeColor=none;fillColor=none;" parent="1" vertex="1">
                    <mxGeometry x="1146.5" y="882" width="36" height="27" as="geometry"/>
                </mxCell>
                <mxCell id="jW4mUXKAXwQGvzpiq0X_-131" value="0-N" style="text;html=1;align=center;verticalAlign=middle;resizable=0;points=[];autosize=1;strokeColor=none;fillColor=none;" parent="1" vertex="1">
                    <mxGeometry x="1142.5" y="900" width="45" height="27" as="geometry"/>
                </mxCell>
                <mxCell id="jW4mUXKAXwQGvzpiq0X_-137" style="edgeStyle=orthogonalEdgeStyle;html=1;exitX=1;exitY=0.25;exitDx=0;exitDy=0;strokeColor=default;endArrow=none;endFill=0;startArrow=none;entryX=1;entryY=0.5;entryDx=0;entryDy=0;" parent="1" source="jW4mUXKAXwQGvzpiq0X_-116" target="jW4mUXKAXwQGvzpiq0X_-120" edge="1">
                    <mxGeometry relative="1" as="geometry">
                        <Array as="points">
                            <mxPoint x="1269" y="933"/>
                            <mxPoint x="1269" y="1058"/>
                        </Array>
                        <mxPoint x="1308" y="954" as="sourcePoint"/>
                        <mxPoint x="1269" y="1053" as="targetPoint"/>
                    </mxGeometry>
                </mxCell>
                <mxCell id="jW4mUXKAXwQGvzpiq0X_-138" value="1-N" style="text;html=1;align=center;verticalAlign=middle;resizable=0;points=[];autosize=1;strokeColor=none;fillColor=none;" parent="1" vertex="1">
                    <mxGeometry x="1213" y="1032" width="45" height="27" as="geometry"/>
                </mxCell>
                <mxCell id="jW4mUXKAXwQGvzpiq0X_-139" value="0-N" style="text;html=1;align=center;verticalAlign=middle;resizable=0;points=[];autosize=1;strokeColor=none;fillColor=none;" parent="1" vertex="1">
                    <mxGeometry x="1213" y="909" width="45" height="27" as="geometry"/>
                </mxCell>
                <mxCell id="jW4mUXKAXwQGvzpiq0X_-140" value="&lt;b&gt;&lt;font style=&quot;font-size: 14px;&quot;&gt;Appartient&lt;/font&gt;&lt;/b&gt;" style="text;html=1;align=center;verticalAlign=middle;resizable=0;points=[];autosize=1;strokeColor=none;fillColor=none;" parent="1" vertex="1">
                    <mxGeometry x="1263" y="978" width="90" height="27" as="geometry"/>
                </mxCell>
                <mxCell id="jW4mUXKAXwQGvzpiq0X_-144" value="" style="endArrow=none;html=1;rounded=0;entryX=0.064;entryY=0;entryDx=0;entryDy=0;entryPerimeter=0;exitX=0.994;exitY=0.078;exitDx=0;exitDy=0;exitPerimeter=0;" parent="1" source="jW4mUXKAXwQGvzpiq0X_-109" target="jW4mUXKAXwQGvzpiq0X_-114" edge="1">
                    <mxGeometry width="50" height="50" relative="1" as="geometry">
                        <mxPoint x="1394" y="858.5" as="sourcePoint"/>
                        <mxPoint x="1444" y="808.5" as="targetPoint"/>
                    </mxGeometry>
                </mxCell>
                <mxCell id="jW4mUXKAXwQGvzpiq0X_-146" value="0-N" style="text;html=1;align=center;verticalAlign=middle;resizable=0;points=[];autosize=1;strokeColor=none;fillColor=none;" parent="1" vertex="1">
                    <mxGeometry x="1214" y="835.5" width="45" height="27" as="geometry"/>
                </mxCell>
                <mxCell id="jW4mUXKAXwQGvzpiq0X_-147" value="0-N" style="text;html=1;align=center;verticalAlign=middle;resizable=0;points=[];autosize=1;strokeColor=none;fillColor=none;" parent="1" vertex="1">
                    <mxGeometry x="1413" y="835.5" width="45" height="27" as="geometry"/>
                </mxCell>
                <mxCell id="jW4mUXKAXwQGvzpiq0X_-153" value="&lt;font style=&quot;font-size: 14px;&quot;&gt;Propriétaire&lt;/font&gt;" style="rhombus;whiteSpace=wrap;html=1;" parent="1" vertex="1">
                    <mxGeometry x="1431" y="625" width="162" height="80" as="geometry"/>
                </mxCell>
                <mxCell id="jW4mUXKAXwQGvzpiq0X_-155" style="edgeStyle=orthogonalEdgeStyle;html=1;strokeColor=default;endArrow=none;endFill=0;startArrow=none;entryX=0.5;entryY=0;entryDx=0;entryDy=0;" parent="1" target="jW4mUXKAXwQGvzpiq0X_-153" edge="1">
                    <mxGeometry relative="1" as="geometry">
                        <Array as="points">
                            <mxPoint x="702" y="216"/>
                            <mxPoint x="1512" y="216"/>
                            <mxPoint x="1512" y="625"/>
                        </Array>
                        <mxPoint x="702" y="252" as="sourcePoint"/>
                        <mxPoint x="1512" y="495" as="targetPoint"/>
                    </mxGeometry>
                </mxCell>
                <mxCell id="jW4mUXKAXwQGvzpiq0X_-157" value="" style="shape=link;html=1;rounded=0;entryX=0.5;entryY=1;entryDx=0;entryDy=0;width=5;exitX=0.45;exitY=-0.033;exitDx=0;exitDy=0;exitPerimeter=0;" parent="1" source="jW4mUXKAXwQGvzpiq0X_-112" target="jW4mUXKAXwQGvzpiq0X_-153" edge="1">
                    <mxGeometry width="100" relative="1" as="geometry">
                        <mxPoint x="1512" y="819" as="sourcePoint"/>
                        <mxPoint x="1513" y="711" as="targetPoint"/>
                        <Array as="points"/>
                    </mxGeometry>
                </mxCell>
                <mxCell id="jW4mUXKAXwQGvzpiq0X_-158" value="1-1" style="text;html=1;align=center;verticalAlign=middle;resizable=0;points=[];autosize=1;strokeColor=none;fillColor=none;" parent="1" vertex="1">
                    <mxGeometry x="1512" y="801" width="36" height="27" as="geometry"/>
                </mxCell>
                <mxCell id="jW4mUXKAXwQGvzpiq0X_-159" value="0-N" style="text;html=1;align=center;verticalAlign=middle;resizable=0;points=[];autosize=1;strokeColor=none;fillColor=none;" parent="1" vertex="1">
                    <mxGeometry x="693" y="225" width="45" height="27" as="geometry"/>
                </mxCell>
                <mxCell id="jW4mUXKAXwQGvzpiq0X_-162" style="edgeStyle=orthogonalEdgeStyle;html=1;exitX=0.5;exitY=1;exitDx=0;exitDy=0;strokeColor=default;endArrow=none;endFill=0;startArrow=none;entryX=0;entryY=0.5;entryDx=0;entryDy=0;" parent="1" source="12" target="jW4mUXKAXwQGvzpiq0X_-59" edge="1">
                    <mxGeometry relative="1" as="geometry">
                        <Array as="points">
                            <mxPoint x="1008" y="482"/>
                            <mxPoint x="1008" y="693"/>
                        </Array>
                        <mxPoint x="1014" y="531" as="sourcePoint"/>
                        <mxPoint x="1003" y="684" as="targetPoint"/>
                    </mxGeometry>
                </mxCell>
                <mxCell id="jW4mUXKAXwQGvzpiq0X_-163" value="0-N" style="text;html=1;align=center;verticalAlign=middle;resizable=0;points=[];autosize=1;strokeColor=none;fillColor=none;" parent="1" vertex="1">
                    <mxGeometry x="999" y="485" width="45" height="27" as="geometry"/>
                </mxCell>
                <mxCell id="jW4mUXKAXwQGvzpiq0X_-164" value="0-1" style="text;html=1;align=center;verticalAlign=middle;resizable=0;points=[];autosize=1;strokeColor=none;fillColor=none;" parent="1" vertex="1">
                    <mxGeometry x="1044" y="666" width="36" height="27" as="geometry"/>
                </mxCell>
                <mxCell id="jW4mUXKAXwQGvzpiq0X_-165" style="edgeStyle=orthogonalEdgeStyle;html=1;strokeColor=default;endArrow=none;endFill=0;startArrow=none;entryX=0.129;entryY=1;entryDx=0;entryDy=0;entryPerimeter=0;exitX=1;exitY=0.5;exitDx=0;exitDy=0;" parent="1" source="28" target="jW4mUXKAXwQGvzpiq0X_-60" edge="1">
                    <mxGeometry relative="1" as="geometry">
                        <Array as="points">
                            <mxPoint x="761" y="801"/>
                            <mxPoint x="1098" y="801"/>
                        </Array>
                        <mxPoint x="918" y="927" as="sourcePoint"/>
                        <mxPoint x="1103" y="754.5" as="targetPoint"/>
                    </mxGeometry>
                </mxCell>
                <mxCell id="jW4mUXKAXwQGvzpiq0X_-166" value="0-1" style="text;html=1;align=center;verticalAlign=middle;resizable=0;points=[];autosize=1;strokeColor=none;fillColor=none;" parent="1" vertex="1">
                    <mxGeometry x="1098" y="738" width="36" height="27" as="geometry"/>
                </mxCell>
                <mxCell id="jW4mUXKAXwQGvzpiq0X_-167" value="0-N" style="text;html=1;align=center;verticalAlign=middle;resizable=0;points=[];autosize=1;strokeColor=none;fillColor=none;" parent="1" vertex="1">
                    <mxGeometry x="754" y="959" width="45" height="27" as="geometry"/>
                </mxCell>
                <mxCell id="jW4mUXKAXwQGvzpiq0X_-170" value="&lt;span data-lucid-content=&quot;{&amp;quot;t&amp;quot;:&amp;quot;Instify E/R model&amp;quot;,&amp;quot;m&amp;quot;:[{&amp;quot;s&amp;quot;:0,&amp;quot;n&amp;quot;:&amp;quot;a&amp;quot;,&amp;quot;v&amp;quot;:&amp;quot;center&amp;quot;},{&amp;quot;s&amp;quot;:0,&amp;quot;n&amp;quot;:&amp;quot;fl&amp;quot;,&amp;quot;v&amp;quot;:16},{&amp;quot;s&amp;quot;:0,&amp;quot;n&amp;quot;:&amp;quot;il&amp;quot;,&amp;quot;v&amp;quot;:9.38},{&amp;quot;s&amp;quot;:0,&amp;quot;n&amp;quot;:&amp;quot;ir&amp;quot;,&amp;quot;v&amp;quot;:9.38},{&amp;quot;s&amp;quot;:0,&amp;quot;n&amp;quot;:&amp;quot;mt&amp;quot;,&amp;quot;v&amp;quot;:2.68},{&amp;quot;s&amp;quot;:0,&amp;quot;n&amp;quot;:&amp;quot;b&amp;quot;,&amp;quot;v&amp;quot;:true,&amp;quot;e&amp;quot;:17},{&amp;quot;s&amp;quot;:0,&amp;quot;n&amp;quot;:&amp;quot;c&amp;quot;,&amp;quot;v&amp;quot;:&amp;quot;#a9afb8ff&amp;quot;,&amp;quot;e&amp;quot;:17},{&amp;quot;s&amp;quot;:0,&amp;quot;n&amp;quot;:&amp;quot;f&amp;quot;,&amp;quot;v&amp;quot;:&amp;quot;Cousine&amp;quot;,&amp;quot;e&amp;quot;:17},{&amp;quot;s&amp;quot;:0,&amp;quot;n&amp;quot;:&amp;quot;fc&amp;quot;,&amp;quot;v&amp;quot;:&amp;quot;Bold&amp;quot;,&amp;quot;e&amp;quot;:17},{&amp;quot;s&amp;quot;:0,&amp;quot;n&amp;quot;:&amp;quot;fid&amp;quot;,&amp;quot;v&amp;quot;:395,&amp;quot;e&amp;quot;:17},{&amp;quot;s&amp;quot;:0,&amp;quot;n&amp;quot;:&amp;quot;s&amp;quot;,&amp;quot;v&amp;quot;:26.22222222222222,&amp;quot;e&amp;quot;:17}]}&quot; data-lucid-type=&quot;application/vnd.lucid.text&quot;&gt;&lt;/span&gt;" style="text;html=1;align=center;verticalAlign=middle;resizable=0;points=[];autosize=1;strokeColor=none;fillColor=none;" parent="1" vertex="1">
                    <mxGeometry x="804" y="51" width="18" height="9" as="geometry"/>
                </mxCell>
                <mxCell id="jW4mUXKAXwQGvzpiq0X_-172" value="&lt;font style=&quot;font-size: 36px;&quot;&gt;&lt;span data-lucid-content=&quot;{&amp;quot;t&amp;quot;:&amp;quot;Instify E/R model&amp;quot;,&amp;quot;m&amp;quot;:[{&amp;quot;s&amp;quot;:0,&amp;quot;n&amp;quot;:&amp;quot;a&amp;quot;,&amp;quot;v&amp;quot;:&amp;quot;center&amp;quot;},{&amp;quot;s&amp;quot;:0,&amp;quot;n&amp;quot;:&amp;quot;fl&amp;quot;,&amp;quot;v&amp;quot;:16},{&amp;quot;s&amp;quot;:0,&amp;quot;n&amp;quot;:&amp;quot;il&amp;quot;,&amp;quot;v&amp;quot;:9.38},{&amp;quot;s&amp;quot;:0,&amp;quot;n&amp;quot;:&amp;quot;ir&amp;quot;,&amp;quot;v&amp;quot;:9.38},{&amp;quot;s&amp;quot;:0,&amp;quot;n&amp;quot;:&amp;quot;mt&amp;quot;,&amp;quot;v&amp;quot;:2.68},{&amp;quot;s&amp;quot;:0,&amp;quot;n&amp;quot;:&amp;quot;b&amp;quot;,&amp;quot;v&amp;quot;:true,&amp;quot;e&amp;quot;:17},{&amp;quot;s&amp;quot;:0,&amp;quot;n&amp;quot;:&amp;quot;c&amp;quot;,&amp;quot;v&amp;quot;:&amp;quot;#a9afb8ff&amp;quot;,&amp;quot;e&amp;quot;:17},{&amp;quot;s&amp;quot;:0,&amp;quot;n&amp;quot;:&amp;quot;f&amp;quot;,&amp;quot;v&amp;quot;:&amp;quot;Cousine&amp;quot;,&amp;quot;e&amp;quot;:17},{&amp;quot;s&amp;quot;:0,&amp;quot;n&amp;quot;:&amp;quot;fc&amp;quot;,&amp;quot;v&amp;quot;:&amp;quot;Bold&amp;quot;,&amp;quot;e&amp;quot;:17},{&amp;quot;s&amp;quot;:0,&amp;quot;n&amp;quot;:&amp;quot;fid&amp;quot;,&amp;quot;v&amp;quot;:395,&amp;quot;e&amp;quot;:17},{&amp;quot;s&amp;quot;:0,&amp;quot;n&amp;quot;:&amp;quot;s&amp;quot;,&amp;quot;v&amp;quot;:26.22222222222222,&amp;quot;e&amp;quot;:17}]}&quot; data-lucid-type=&quot;application/vnd.lucid.text&quot;&gt;&lt;span style=&quot;font-weight: bold; color: rgb(169, 175, 184);&quot;&gt;Instify E/R model&lt;/span&gt;&lt;/span&gt;&lt;/font&gt;" style="text;html=1;align=center;verticalAlign=middle;resizable=0;points=[];autosize=1;strokeColor=none;fillColor=none;" parent="1" vertex="1">
                    <mxGeometry x="706" y="36" width="315" height="54" as="geometry"/>
                </mxCell>
                <mxCell id="HyIcmmqX0pT-Xk0gkFHO-57" value="" style="edgeStyle=orthogonalEdgeStyle;rounded=0;orthogonalLoop=1;jettySize=auto;html=1;exitX=0.75;exitY=0;exitDx=0;exitDy=0;entryX=0.5;entryY=0;entryDx=0;entryDy=0;endArrow=none;endFill=0;" parent="1" source="12" target="HyIcmmqX0pT-Xk0gkFHO-59" edge="1">
                    <mxGeometry relative="1" as="geometry">
                        <mxPoint x="1038" y="422" as="sourcePoint"/>
                        <mxPoint x="1185" y="828" as="targetPoint"/>
                        <Array as="points">
                            <mxPoint x="1038" y="402"/>
                            <mxPoint x="1281" y="402"/>
                        </Array>
                    </mxGeometry>
                </mxCell>
                <mxCell id="HyIcmmqX0pT-Xk0gkFHO-58" value="&lt;div&gt;0-N&lt;/div&gt;" style="edgeLabel;html=1;align=center;verticalAlign=middle;resizable=0;points=[];" parent="HyIcmmqX0pT-Xk0gkFHO-57" vertex="1" connectable="0">
                    <mxGeometry x="-0.9112" y="-1" relative="1" as="geometry">
                        <mxPoint x="23" y="9" as="offset"/>
                    </mxGeometry>
                </mxCell>
                <mxCell id="HyIcmmqX0pT-Xk0gkFHO-59" value="Créateur" style="rhombus;whiteSpace=wrap;html=1;" parent="1" vertex="1">
                    <mxGeometry x="1233" y="512" width="96" height="89" as="geometry"/>
                </mxCell>
                <mxCell id="HyIcmmqX0pT-Xk0gkFHO-63" value="Participe" style="ellipse;whiteSpace=wrap;html=1;" parent="1" vertex="1">
                    <mxGeometry x="252" y="576" width="63" height="27" as="geometry"/>
                </mxCell>
                <mxCell id="HyIcmmqX0pT-Xk0gkFHO-74" style="edgeStyle=orthogonalEdgeStyle;rounded=0;orthogonalLoop=1;jettySize=auto;html=1;entryX=0;entryY=0.25;entryDx=0;entryDy=0;endArrow=none;endFill=0;exitX=0.402;exitY=0.973;exitDx=0;exitDy=0;exitPerimeter=0;" parent="1" source="88" target="jW4mUXKAXwQGvzpiq0X_-116" edge="1">
                    <mxGeometry relative="1" as="geometry">
                        <Array as="points">
                            <mxPoint x="878" y="933"/>
                        </Array>
                        <mxPoint x="891" y="738" as="sourcePoint"/>
                    </mxGeometry>
                </mxCell>
                <mxCell id="HyIcmmqX0pT-Xk0gkFHO-76" value="0-1" style="edgeLabel;html=1;align=center;verticalAlign=middle;resizable=0;points=[];fontSize=12;" parent="HyIcmmqX0pT-Xk0gkFHO-74" vertex="1" connectable="0">
                    <mxGeometry x="0.8665" y="-2" relative="1" as="geometry">
                        <mxPoint x="9" y="10" as="offset"/>
                    </mxGeometry>
                </mxCell>
                <mxCell id="HyIcmmqX0pT-Xk0gkFHO-77" style="edgeStyle=orthogonalEdgeStyle;rounded=0;orthogonalLoop=1;jettySize=auto;html=1;exitX=0.5;exitY=0;exitDx=0;exitDy=0;entryX=1;entryY=0.5;entryDx=0;entryDy=0;endArrow=none;endFill=0;" parent="1" target="3" edge="1">
                    <mxGeometry relative="1" as="geometry">
                        <mxPoint x="887" y="705" as="sourcePoint"/>
                    </mxGeometry>
                </mxCell>
                <mxCell id="HyIcmmqX0pT-Xk0gkFHO-78" style="edgeStyle=orthogonalEdgeStyle;rounded=0;orthogonalLoop=1;jettySize=auto;html=1;exitX=0;exitY=0.5;exitDx=0;exitDy=0;endArrow=none;endFill=0;" parent="1" source="88" target="18" edge="1">
                    <mxGeometry relative="1" as="geometry">
                        <mxPoint x="841.0000000000032" y="723" as="sourcePoint"/>
                    </mxGeometry>
                </mxCell>
                <mxCell id="HyIcmmqX0pT-Xk0gkFHO-82" style="edgeStyle=orthogonalEdgeStyle;rounded=0;orthogonalLoop=1;jettySize=auto;html=1;exitX=0;exitY=0;exitDx=0;exitDy=0;endArrow=none;endFill=0;startArrow=none;" parent="1" source="87" edge="1">
                    <mxGeometry relative="1" as="geometry">
                        <mxPoint x="819" y="675" as="targetPoint"/>
                        <Array as="points"/>
                    </mxGeometry>
                </mxCell>
                <mxCell id="HyIcmmqX0pT-Xk0gkFHO-73" style="edgeStyle=orthogonalEdgeStyle;rounded=0;orthogonalLoop=1;jettySize=auto;html=1;exitX=0;exitY=0.5;exitDx=0;exitDy=0;entryX=1;entryY=0.5;entryDx=0;entryDy=0;endArrow=none;endFill=0;" parent="1" source="jW4mUXKAXwQGvzpiq0X_-60" target="88" edge="1">
                    <mxGeometry relative="1" as="geometry">
                        <mxPoint x="932.9999999999968" y="723" as="targetPoint"/>
                        <Array as="points">
                            <mxPoint x="962" y="723"/>
                        </Array>
                    </mxGeometry>
                </mxCell>
                <mxCell id="HyIcmmqX0pT-Xk0gkFHO-75" value="&lt;div&gt;0-N&lt;br&gt;&lt;/div&gt;" style="edgeLabel;html=1;align=center;verticalAlign=middle;resizable=0;points=[];" parent="HyIcmmqX0pT-Xk0gkFHO-73" vertex="1" connectable="0">
                    <mxGeometry x="-0.7972" y="-1" relative="1" as="geometry">
                        <mxPoint x="1" y="16" as="offset"/>
                    </mxGeometry>
                </mxCell>
                <mxCell id="92" value="0-N" style="edgeLabel;html=1;align=center;verticalAlign=middle;resizable=0;points=[];" vertex="1" connectable="0" parent="HyIcmmqX0pT-Xk0gkFHO-73">
                    <mxGeometry x="0.7816" y="3" relative="1" as="geometry">
                        <mxPoint y="12" as="offset"/>
                    </mxGeometry>
                </mxCell>
                <mxCell id="HyIcmmqX0pT-Xk0gkFHO-80" value="0-1" style="text;html=1;align=center;verticalAlign=middle;resizable=0;points=[];autosize=1;strokeColor=none;fillColor=none;" parent="1" vertex="1">
                    <mxGeometry x="767.5" y="297" width="36" height="27" as="geometry"/>
                </mxCell>
                <mxCell id="HyIcmmqX0pT-Xk0gkFHO-81" value="0-1" style="text;html=1;align=center;verticalAlign=middle;resizable=0;points=[];autosize=1;strokeColor=none;fillColor=none;" parent="1" vertex="1">
                    <mxGeometry x="642" y="747" width="36" height="27" as="geometry"/>
                </mxCell>
                <mxCell id="57" value="Média" style="swimlane;fontStyle=0;childLayout=stackLayout;horizontal=1;startSize=30;horizontalStack=0;resizeParent=1;resizeParentMax=0;resizeLast=0;collapsible=1;marginBottom=0;whiteSpace=wrap;html=1;" parent="1" vertex="1">
                    <mxGeometry x="793.5" y="999" width="140" height="90" as="geometry"/>
                </mxCell>
                <mxCell id="58" value="&lt;u&gt;Pathname&lt;/u&gt;" style="text;strokeColor=none;fillColor=none;align=left;verticalAlign=middle;spacingLeft=4;spacingRight=4;overflow=hidden;points=[[0,0.5],[1,0.5]];portConstraint=eastwest;rotatable=0;whiteSpace=wrap;html=1;" parent="57" vertex="1">
                    <mxGeometry y="30" width="140" height="30" as="geometry"/>
                </mxCell>
                <mxCell id="59" value="Type" style="text;strokeColor=none;fillColor=none;align=left;verticalAlign=middle;spacingLeft=4;spacingRight=4;overflow=hidden;points=[[0,0.5],[1,0.5]];portConstraint=eastwest;rotatable=0;whiteSpace=wrap;html=1;" parent="57" vertex="1">
                    <mxGeometry y="60" width="140" height="30" as="geometry"/>
                </mxCell>
                <mxCell id="87" value="Tag" style="swimlane;fontStyle=0;childLayout=stackLayout;horizontal=1;startSize=30;horizontalStack=0;resizeParent=1;resizeParentMax=0;resizeLast=0;collapsible=1;marginBottom=0;whiteSpace=wrap;html=1;" vertex="1" parent="1">
                    <mxGeometry x="822" y="678" width="140" height="60" as="geometry"/>
                </mxCell>
                <mxCell id="88" value="&lt;u&gt;mot&lt;/u&gt;" style="text;strokeColor=none;fillColor=none;align=left;verticalAlign=middle;spacingLeft=4;spacingRight=4;overflow=hidden;points=[[0,0.5],[1,0.5]];portConstraint=eastwest;rotatable=0;whiteSpace=wrap;html=1;" vertex="1" parent="87">
                    <mxGeometry y="30" width="140" height="30" as="geometry"/>
                </mxCell>
            </root>
        </mxGraphModel>
    </diagram>
</mxfile>